<mxfile host="app.diagrams.net" modified="2023-10-21T18:18:49.018Z" agent="Mozilla/5.0 (iPhone; CPU iPhone OS 16_6 like Mac OS X) AppleWebKit/605.1.15 (KHTML, like Gecko) CriOS/118.0.5993.92 Mobile/15E148 Safari/604.1" version="22.0.6" etag="J2vv7qG52aEQ-5tGa_DP" type="github">
  <diagram name="Strona-1" id="RVmIQN-4i123yFRmf0D9">
    <mxGraphModel>
      <root>
        <mxCell id="0" />
        <mxCell id="1" parent="0" />
      </root>
    </mxGraphModel>
  </diagram>
</mxfile>
